<mxfile host="app.diagrams.net" modified="2020-12-18T09:40:31.904Z" agent="5.0 (X11; Linux x86_64) AppleWebKit/537.36 (KHTML, like Gecko) Chrome/87.0.4280.88 Safari/537.36" etag="cAPGoVntGxNUmrbbvdvm" version="14.0.5" type="github">
  <diagram name="Page-1" id="13e1069c-82ec-6db2-03f1-153e76fe0fe0">
    <mxGraphModel dx="-541" dy="305" grid="1" gridSize="10" guides="1" tooltips="1" connect="1" arrows="1" fold="1" page="1" pageScale="1" pageWidth="1100" pageHeight="850" background="#ffffff" math="0" shadow="0">
      <root>
        <mxCell id="0" />
        <mxCell id="1" parent="0" />
        <mxCell id="ytdSUjh50x-NLadKz5zi-1" value="ApiService/RefreshData" style="shape=umlLifeline;perimeter=lifelinePerimeter;container=1;collapsible=0;recursiveResize=0;rounded=0;shadow=0;strokeWidth=1;" vertex="1" parent="1">
          <mxGeometry x="1249" y="80" width="130" height="520" as="geometry" />
        </mxCell>
        <mxCell id="ytdSUjh50x-NLadKz5zi-2" value="" style="points=[];perimeter=orthogonalPerimeter;rounded=0;shadow=0;strokeWidth=1;" vertex="1" parent="ytdSUjh50x-NLadKz5zi-1">
          <mxGeometry x="60" y="70" width="10" height="450" as="geometry" />
        </mxCell>
        <mxCell id="ytdSUjh50x-NLadKz5zi-3" value="[appel api/refreshdataFromDataBase]" style="verticalAlign=bottom;startArrow=oval;endArrow=block;startSize=8;shadow=0;strokeWidth=1;" edge="1" parent="ytdSUjh50x-NLadKz5zi-1" target="ytdSUjh50x-NLadKz5zi-2">
          <mxGeometry x="0.0286" relative="1" as="geometry">
            <mxPoint x="-130" y="70" as="sourcePoint" />
            <mxPoint as="offset" />
          </mxGeometry>
        </mxCell>
        <mxCell id="ytdSUjh50x-NLadKz5zi-4" value="Manager" style="shape=umlLifeline;perimeter=lifelinePerimeter;container=1;collapsible=0;recursiveResize=0;rounded=0;shadow=0;strokeWidth=1;" vertex="1" parent="1">
          <mxGeometry x="1409" y="80" width="100" height="530" as="geometry" />
        </mxCell>
        <mxCell id="ytdSUjh50x-NLadKz5zi-5" value="" style="points=[];perimeter=orthogonalPerimeter;rounded=0;shadow=0;strokeWidth=1;" vertex="1" parent="ytdSUjh50x-NLadKz5zi-4">
          <mxGeometry x="45" y="80" width="10" height="450" as="geometry" />
        </mxCell>
        <mxCell id="ytdSUjh50x-NLadKz5zi-6" value="refreshData" style="verticalAlign=bottom;endArrow=block;entryX=0;entryY=0;shadow=0;strokeWidth=1;" edge="1" parent="1" source="ytdSUjh50x-NLadKz5zi-2" target="ytdSUjh50x-NLadKz5zi-5">
          <mxGeometry relative="1" as="geometry">
            <mxPoint x="1434" y="160" as="sourcePoint" />
          </mxGeometry>
        </mxCell>
        <mxCell id="ytdSUjh50x-NLadKz5zi-7" value="WebServerConnector" style="shape=umlLifeline;perimeter=lifelinePerimeter;container=1;collapsible=0;recursiveResize=0;rounded=0;shadow=0;strokeWidth=1;" vertex="1" parent="1">
          <mxGeometry x="1680" y="80" width="120" height="520" as="geometry" />
        </mxCell>
        <mxCell id="ytdSUjh50x-NLadKz5zi-8" value="" style="points=[];perimeter=orthogonalPerimeter;rounded=0;shadow=0;strokeWidth=1;" vertex="1" parent="ytdSUjh50x-NLadKz5zi-7">
          <mxGeometry x="55" y="80" width="10" height="440" as="geometry" />
        </mxCell>
        <mxCell id="ytdSUjh50x-NLadKz5zi-10" value="FireManager" style="shape=umlLifeline;perimeter=lifelinePerimeter;container=1;collapsible=0;recursiveResize=0;rounded=0;shadow=0;strokeWidth=1;" vertex="1" parent="1">
          <mxGeometry x="1830" y="80" width="100" height="560" as="geometry" />
        </mxCell>
        <mxCell id="ytdSUjh50x-NLadKz5zi-11" value="" style="points=[];perimeter=orthogonalPerimeter;rounded=0;shadow=0;strokeWidth=1;" vertex="1" parent="ytdSUjh50x-NLadKz5zi-10">
          <mxGeometry x="45" y="80" width="10" height="440" as="geometry" />
        </mxCell>
        <mxCell id="ytdSUjh50x-NLadKz5zi-12" value="updateTrucks" style="verticalAlign=bottom;endArrow=block;shadow=0;strokeWidth=1;" edge="1" parent="ytdSUjh50x-NLadKz5zi-10">
          <mxGeometry x="-0.3855" relative="1" as="geometry">
            <mxPoint x="55" y="264" as="sourcePoint" />
            <mxPoint x="55" y="283" as="targetPoint" />
            <Array as="points">
              <mxPoint x="135" y="264" />
              <mxPoint x="135" y="283" />
            </Array>
            <mxPoint as="offset" />
          </mxGeometry>
        </mxCell>
        <mxCell id="ytdSUjh50x-NLadKz5zi-14" value="updateFires" style="verticalAlign=bottom;endArrow=block;shadow=0;strokeWidth=1;" edge="1" parent="ytdSUjh50x-NLadKz5zi-10" source="ytdSUjh50x-NLadKz5zi-11" target="ytdSUjh50x-NLadKz5zi-11">
          <mxGeometry x="-0.3855" relative="1" as="geometry">
            <mxPoint x="55" y="336" as="sourcePoint" />
            <mxPoint x="55" y="355" as="targetPoint" />
            <Array as="points">
              <mxPoint x="142" y="336" />
              <mxPoint x="142" y="355" />
            </Array>
            <mxPoint as="offset" />
          </mxGeometry>
        </mxCell>
        <mxCell id="ytdSUjh50x-NLadKz5zi-15" value="MissionManager" style="shape=umlLifeline;perimeter=lifelinePerimeter;container=1;collapsible=0;recursiveResize=0;rounded=0;shadow=0;strokeWidth=1;" vertex="1" parent="1">
          <mxGeometry x="1540" y="80" width="100" height="560" as="geometry" />
        </mxCell>
        <mxCell id="ytdSUjh50x-NLadKz5zi-16" value="" style="points=[];perimeter=orthogonalPerimeter;rounded=0;shadow=0;strokeWidth=1;" vertex="1" parent="ytdSUjh50x-NLadKz5zi-15">
          <mxGeometry x="45" y="80" width="10" height="440" as="geometry" />
        </mxCell>
        <mxCell id="ytdSUjh50x-NLadKz5zi-18" value="update" style="verticalAlign=bottom;endArrow=block;shadow=0;strokeWidth=1;" edge="1" parent="1" source="ytdSUjh50x-NLadKz5zi-5" target="ytdSUjh50x-NLadKz5zi-16">
          <mxGeometry x="0.0833" y="10" relative="1" as="geometry">
            <mxPoint x="1473.8899999999999" y="180.00000000000014" as="sourcePoint" />
            <mxPoint x="1594.1" y="180.00000000000014" as="targetPoint" />
            <Array as="points">
              <mxPoint x="1549" y="180" />
            </Array>
            <mxPoint as="offset" />
          </mxGeometry>
        </mxCell>
        <mxCell id="ytdSUjh50x-NLadKz5zi-27" value="updateTruck" style="verticalAlign=bottom;endArrow=block;shadow=0;strokeWidth=1;" edge="1" parent="1">
          <mxGeometry x="-0.0714" relative="1" as="geometry">
            <mxPoint x="1595" y="212" as="sourcePoint" />
            <mxPoint x="1735" y="212" as="targetPoint" />
            <Array as="points">
              <mxPoint x="1695" y="212" />
            </Array>
            <mxPoint as="offset" />
          </mxGeometry>
        </mxCell>
        <mxCell id="ytdSUjh50x-NLadKz5zi-28" value="updateMission" style="verticalAlign=bottom;endArrow=block;shadow=0;strokeWidth=1;" edge="1" parent="1">
          <mxGeometry x="-0.0714" relative="1" as="geometry">
            <mxPoint x="1595" y="235" as="sourcePoint" />
            <mxPoint x="1735" y="235" as="targetPoint" />
            <Array as="points">
              <mxPoint x="1705" y="235" />
            </Array>
            <mxPoint as="offset" />
          </mxGeometry>
        </mxCell>
        <mxCell id="ytdSUjh50x-NLadKz5zi-29" value="update" style="verticalAlign=bottom;endArrow=block;shadow=0;strokeWidth=1;" edge="1" parent="1" source="ytdSUjh50x-NLadKz5zi-16" target="ytdSUjh50x-NLadKz5zi-10">
          <mxGeometry x="-0.0083" relative="1" as="geometry">
            <mxPoint x="1600" y="270" as="sourcePoint" />
            <mxPoint x="1721" y="270" as="targetPoint" />
            <Array as="points">
              <mxPoint x="1685" y="270" />
            </Array>
            <mxPoint as="offset" />
          </mxGeometry>
        </mxCell>
        <mxCell id="ytdSUjh50x-NLadKz5zi-31" value="WebServerSimulatorConnector" style="shape=umlLifeline;perimeter=lifelinePerimeter;container=1;collapsible=0;recursiveResize=0;rounded=0;shadow=0;strokeWidth=1;" vertex="1" parent="1">
          <mxGeometry x="1970" y="80" width="180" height="520" as="geometry" />
        </mxCell>
        <mxCell id="ytdSUjh50x-NLadKz5zi-32" value="" style="points=[];perimeter=orthogonalPerimeter;rounded=0;shadow=0;strokeWidth=1;" vertex="1" parent="ytdSUjh50x-NLadKz5zi-31">
          <mxGeometry x="85" y="80" width="10" height="440" as="geometry" />
        </mxCell>
      </root>
    </mxGraphModel>
  </diagram>
</mxfile>
